<svg width="529" height="434" viewBox="0 0 529 434" fill="none" xmlns="http://www.w3.org/2000/svg">
<path opacity="0.31" d="M528.687 389.366C528.687 414.016 410.417 434 264.521 434C118.627 434 0.35498 414.016 0.35498 389.366C0.35498 382.88 8.5439 376.715 23.2728 371.158C64.5135 355.582 157.018 344.735 264.521 344.735C372.025 344.735 464.531 355.582 505.769 371.158C520.498 376.715 528.687 382.88 528.687 389.366Z" fill="#26292C"/>
<g opacity="0.23">
<path opacity="0.08" d="M254.449 2.81771C314.2 12.8321 344.705 70.4039 440.926 121.634C537.148 172.864 515.963 372.906 363.998 340.281C219.022 309.156 212.311 311.613 117.363 314.487C-1.48154 318.084 65.3631 -28.8732 254.449 2.81771Z" fill="#26292C"/>
<mask id="mask0_299_8021" style="mask-type:luminance" maskUnits="userSpaceOnUse" x="58" y="0" width="442" height="344">
<path d="M254.449 2.81771C314.2 12.8321 344.705 70.4039 440.926 121.634C537.148 172.864 515.963 372.906 363.998 340.281C219.022 309.156 212.311 311.613 117.363 314.487C-1.48154 318.084 65.3631 -28.8732 254.449 2.81771Z" fill="white"/>
</mask>
<g mask="url(#mask0_299_8021)">
<path opacity="0.08" d="M27.9539 72.19V58.1061H55.4132V-9.2088H62.9827V58.1061H92.5605V72.19H108.403V354.432H-5.84937V72.19H27.9539Z" fill="#26292C"/>
<path opacity="0.08" d="M165.529 139.422H51.2776V354.432H165.529V139.422Z" fill="#26292C"/>
<path opacity="0.23" d="M67.1191 139.422H51.2776V354.432H67.1191V139.422Z" fill="#26292C"/>
<path opacity="0.08" d="M149.587 148.582H133.192V154.371H149.587V148.582Z" fill="#26292C"/>
<path opacity="0.08" d="M121.984 148.582H105.589V154.371H121.984V148.582Z" fill="#26292C"/>
<path opacity="0.08" d="M149.587 169.66H133.192V175.449H149.587V169.66Z" fill="#26292C"/>
<path opacity="0.08" d="M121.984 169.66H105.589V175.449H121.984V169.66Z" fill="#26292C"/>
<path opacity="0.08" d="M94.3809 169.66H77.9866V175.449H94.3809V169.66Z" fill="#26292C"/>
<path opacity="0.08" d="M149.587 190.738H133.192V196.526H149.587V190.738Z" fill="#26292C"/>
<path opacity="0.08" d="M94.3809 190.738H77.9866V196.526H94.3809V190.738Z" fill="#26292C"/>
<path opacity="0.08" d="M121.984 201.277H105.589V207.066H121.984V201.277Z" fill="#26292C"/>
<path opacity="0.08" d="M149.587 211.815H133.192V217.605H149.587V211.815Z" fill="#26292C"/>
<path opacity="0.08" d="M121.984 222.354H105.589V228.143H121.984V222.354Z" fill="#26292C"/>
<path opacity="0.08" d="M149.587 232.894H133.192V238.683H149.587V232.894Z" fill="#26292C"/>
<path opacity="0.08" d="M94.3809 232.894H77.9866V238.683H94.3809V232.894Z" fill="#26292C"/>
<path opacity="0.08" d="M149.587 252.371H133.192V258.16H149.587V252.371Z" fill="#26292C"/>
<path opacity="0.08" d="M121.984 252.371H105.589V258.16H121.984V252.371Z" fill="#26292C"/>
<path opacity="0.08" d="M149.587 273.449H133.192V279.238H149.587V273.449Z" fill="#26292C"/>
<path opacity="0.08" d="M121.984 273.449H105.589V279.238H121.984V273.449Z" fill="#26292C"/>
<path opacity="0.08" d="M94.3809 273.449H77.9866V279.238H94.3809V273.449Z" fill="#26292C"/>
<path opacity="0.08" d="M149.587 294.527H133.192V300.316H149.587V294.527Z" fill="#26292C"/>
<path opacity="0.08" d="M94.3809 294.527H77.9866V300.316H94.3809V294.527Z" fill="#26292C"/>
<path opacity="0.08" d="M121.984 305.066H105.589V310.854H121.984V305.066Z" fill="#26292C"/>
<path opacity="0.08" d="M94.3809 305.066H77.9866V310.854H94.3809V305.066Z" fill="#26292C"/>
<path opacity="0.08" d="M149.587 315.604H133.192V321.394H149.587V315.604Z" fill="#26292C"/>
<path opacity="0.08" d="M121.984 326.143H105.589V331.932H121.984V326.143Z" fill="#26292C"/>
<path opacity="0.08" d="M149.587 336.682H133.192V342.471H149.587V336.682Z" fill="#26292C"/>
<path opacity="0.08" d="M94.3809 336.682H77.9866V342.471H94.3809V336.682Z" fill="#26292C"/>
<path opacity="0.15" d="M438.897 139.422H324.646V354.432H438.897V139.422Z" fill="#26292C"/>
<path opacity="0.23" d="M340.487 139.422H324.646V354.432H340.487V139.422Z" fill="#26292C"/>
<path opacity="0.15" d="M315.641 37.1545H162.348V354.432H315.641V37.1545Z" fill="#26292C"/>
<path opacity="0.23" d="M178.189 37.1545H162.348V354.432H178.189V37.1545Z" fill="#26292C"/>
<path opacity="0.08" d="M299.493 52.3502H275.553V60.804H299.493V52.3502Z" fill="#26292C"/>
<path opacity="0.08" d="M259.186 52.3502H235.245V60.804H259.186V52.3502Z" fill="#26292C"/>
<path opacity="0.08" d="M299.493 83.1298H275.553V91.5835H299.493V83.1298Z" fill="#26292C"/>
<path opacity="0.08" d="M259.186 83.1298H235.245V91.5835H259.186V83.1298Z" fill="#26292C"/>
<path opacity="0.08" d="M218.877 83.1298H194.937V91.5835H218.877V83.1298Z" fill="#26292C"/>
<path opacity="0.08" d="M299.493 113.909H275.553V122.363H299.493V113.909Z" fill="#26292C"/>
<path opacity="0.08" d="M218.877 113.909H194.937V122.363H218.877V113.909Z" fill="#26292C"/>
<path opacity="0.08" d="M259.186 129.299H235.245V137.753H259.186V129.299Z" fill="#26292C"/>
<path opacity="0.08" d="M299.493 144.689H275.553V153.143H299.493V144.689Z" fill="#26292C"/>
<path opacity="0.08" d="M259.186 160.079H235.245V168.532H259.186V160.079Z" fill="#26292C"/>
<path opacity="0.08" d="M299.493 175.469H275.553V183.922H299.493V175.469Z" fill="#26292C"/>
<path opacity="0.08" d="M218.877 175.469H194.937V183.922H218.877V175.469Z" fill="#26292C"/>
<path opacity="0.08" d="M299.493 203.912H275.553V212.365H299.493V203.912Z" fill="#26292C"/>
<path opacity="0.08" d="M259.186 203.912H235.245V212.365H259.186V203.912Z" fill="#26292C"/>
<path opacity="0.08" d="M299.493 234.691H275.553V243.145H299.493V234.691Z" fill="#26292C"/>
<path opacity="0.08" d="M259.186 234.691H235.245V243.145H259.186V234.691Z" fill="#26292C"/>
<path opacity="0.08" d="M218.877 234.691H194.937V243.145H218.877V234.691Z" fill="#26292C"/>
<path opacity="0.08" d="M299.493 265.471H275.553V273.925H299.493V265.471Z" fill="#26292C"/>
<path opacity="0.08" d="M218.877 265.471H194.937V273.925H218.877V265.471Z" fill="#26292C"/>
<path opacity="0.08" d="M259.186 280.861H235.245V289.314H259.186V280.861Z" fill="#26292C"/>
<path opacity="0.08" d="M218.877 280.861H194.937V289.314H218.877V280.861Z" fill="#26292C"/>
<path opacity="0.08" d="M299.493 296.251H275.553V304.704H299.493V296.251Z" fill="#26292C"/>
<path opacity="0.08" d="M259.186 311.641H235.245V320.094H259.186V311.641Z" fill="#26292C"/>
<path opacity="0.08" d="M299.493 327.03H275.553V335.484H299.493V327.03Z" fill="#26292C"/>
<path opacity="0.08" d="M218.877 327.03H194.937V335.484H218.877V327.03Z" fill="#26292C"/>
<path opacity="0.08" d="M553.603 60.804H403.357V354.432H553.603V60.804Z" fill="#26292C"/>
<path opacity="0.23" d="M418.885 60.804H403.357V354.432H418.885V60.804Z" fill="#26292C"/>
<path opacity="0.08" d="M498.27 74.8669H474.806V82.6905H498.27V74.8669Z" fill="#26292C"/>
<path opacity="0.08" d="M498.27 103.352H474.806V111.176H498.27V103.352Z" fill="#26292C"/>
<path opacity="0.08" d="M458.764 103.352H435.299V111.176H458.764V103.352Z" fill="#26292C"/>
<path opacity="0.08" d="M458.764 131.838H435.299V139.661H458.764V131.838Z" fill="#26292C"/>
<path opacity="0.08" d="M498.27 146.08H474.806V153.904H498.27V146.08Z" fill="#26292C"/>
<path opacity="0.08" d="M498.27 174.566H474.806V182.389H498.27V174.566Z" fill="#26292C"/>
<path opacity="0.08" d="M458.764 188.808H435.299V196.632H458.764V188.808Z" fill="#26292C"/>
<path opacity="0.08" d="M498.27 215.132H474.806V222.955H498.27V215.132Z" fill="#26292C"/>
<path opacity="0.08" d="M498.27 243.617H474.806V251.44H498.27V243.617Z" fill="#26292C"/>
<path opacity="0.08" d="M458.764 243.617H435.299V251.44H458.764V243.617Z" fill="#26292C"/>
<path opacity="0.08" d="M458.764 272.102H435.299V279.926H458.764V272.102Z" fill="#26292C"/>
<path opacity="0.08" d="M498.27 286.344H474.806V294.168H498.27V286.344Z" fill="#26292C"/>
<path opacity="0.08" d="M458.764 286.344H435.299V294.168H458.764V286.344Z" fill="#26292C"/>
<path opacity="0.08" d="M498.27 314.83H474.806V322.653H498.27V314.83Z" fill="#26292C"/>
<path opacity="0.08" d="M458.764 329.072H435.299V336.896H458.764V329.072Z" fill="#26292C"/>
<path opacity="0.14" d="M267.259 -40.041H-142.822V357.745H267.259V-40.041Z" fill="white"/>
<path d="M271.745 -44.5916H262.775V362.878H271.745V-44.5916Z" fill="white"/>
<path d="M-57.841 350.562H-73.7542L96.8598 -35.4896H112.773L-57.841 350.562Z" fill="#FFCC00"/>
<path d="M135.052 -42.5371H126.081V360.824H135.052V-42.5371Z" fill="white"/>
<path d="M271.784 -44.5916H262.813V362.878H271.784V-44.5916Z" fill="white"/>
<path d="M408.478 -42.5371H399.507V360.824H408.478V-42.5371Z" fill="white"/>
<path d="M696.599 27.1587H-147.309V31.7097H696.599V27.1587Z" fill="white"/>
<path d="M696.599 148.526H-147.309V153.078H696.599V148.526Z" fill="white"/>
<path d="M696.599 269.894H-147.309V274.446H696.599V269.894Z" fill="white"/>
</g>
</g>
<g style="mix-blend-mode:multiply" opacity="0.2">
<path d="M136.013 359.399C136.013 359.399 105.318 362.591 104.193 367.632C103.067 372.674 196.824 415.546 229.76 428.714C245.247 434.906 396.489 414.534 399.932 411.156C403.375 407.779 351.525 396.16 351.525 396.16L136.013 359.399Z" fill="#263380"/>
</g>
<path d="M159.333 342.212V352.542L185.575 359.399V343.468L159.333 342.212Z" fill="black"/>
<path d="M208.93 345.932V356.263L235.173 363.119V347.188L208.93 345.932Z" fill="black"/>
<path d="M107.695 334.727V345.057L133.937 351.913V335.982L107.695 334.727Z" fill="black"/>
<path d="M169.619 393.911L186.86 393.858C186.86 393.858 201.973 389.851 191.115 349.306L169.827 348.187L169.619 393.911Z" fill="black"/>
<path d="M123.701 369.752L131.829 369.72C131.829 369.72 141.003 366.148 134.348 341.497H123.701V369.752Z" fill="black"/>
<path d="M218.145 416.386L241.708 416.314C241.708 416.314 259.563 410.707 248.691 355.624L218.145 353.884V416.386Z" fill="black"/>
<path d="M188.914 193.216L104.192 265.142V331.978L192.208 339.055L188.914 193.216Z" fill="#08A742"/>
<path d="M188.915 339.055H240.689L248.691 193.216H188.915V339.055Z" fill="#099337"/>
<path d="M250.762 222.546H195.041V327.967H250.762V222.546Z" fill="white"/>
<path d="M250.275 410.861L250.762 342.263L104.192 331.978L106.047 346.493C106.167 347.434 106.586 348.312 107.241 348.999C107.897 349.685 108.755 350.143 109.69 350.306L111.948 350.436L110.742 337.109L130.235 339.388L129.614 366.148L160.71 377.817C160.71 377.817 161.05 344.34 172.715 346.228C181.506 347.651 183.008 361.418 183.008 372.107C183.008 382.507 181.173 385.496 181.173 385.496L208.593 395.786C208.593 395.786 205.247 345.781 223.473 351.461C243.14 357.59 233.854 405.288 233.854 405.288L238.341 406.92C238.341 406.92 247.28 410.58 250.275 410.861Z" fill="#BF9A00"/>
<path d="M392.007 285.376L390.734 389.588C390.691 392.921 389.397 396.116 387.108 398.539C384.818 400.962 381.702 402.435 378.377 402.666L255.938 411.095C252.204 411.348 248.46 410.79 244.962 409.46L238.338 406.923L242.562 348.188L205.663 342.211L202.107 338.846V201.875L257.403 182.066L367.072 186.928L392.007 285.376Z" fill="#FFCC00"/>
<path d="M248.688 294.102L253.05 410.862L252.594 411.106C249.98 410.957 247.405 410.402 244.962 409.46L238.337 406.923L241.556 362.174C241.831 358.355 240.666 354.57 238.29 351.567C235.915 348.563 232.5 346.558 228.72 345.946L205.663 342.211L202.107 338.846V201.875L257.403 182.066L248.688 234.199L248.688 294.102Z" fill="#DDB300"/>
<path d="M385.892 286.087L332.868 287.669L321.244 288.019L301.404 288.614L286.616 289.06L255.991 289.972V240.196H375.659L385.892 286.087Z" fill="#C5E6F2"/>
<path d="M244.444 243.726V286.793L211.224 280.263V248.139L244.444 243.726Z" fill="#C5E6F2"/>
<path d="M261.634 293.853C261.634 293.853 279.991 300.914 282.109 349.629C307.878 349.276 373.538 346.099 373.538 346.099C373.538 346.099 374.597 302.323 383.775 290.321C344.238 291.027 261.634 293.853 261.634 293.853Z" fill="#DDB300"/>
<path d="M288.866 315.422L288.899 318.264L296.271 324.012L364.237 321.805L370.787 316.953L370.749 313.618L288.866 315.422Z" fill="#171925"/>
<path d="M288.995 326.595L289.027 329.437L296.399 335.185L364.366 332.978L370.916 328.127L370.877 324.791L288.995 326.595Z" fill="#171925"/>
<path d="M289.123 337.768L289.156 340.61L296.528 346.358L364.494 344.151L371.044 339.299L371.006 335.964L289.123 337.768Z" fill="#171925"/>
<path d="M305.584 309.736C305.584 309.736 298.171 294.383 276.46 299.855C279.991 309.562 280.167 310.798 280.167 310.798L305.584 309.736Z" fill="black"/>
<path d="M354.134 308.199L373.891 307.618C373.891 307.618 374.535 302.587 376.412 297.676C357.123 293.851 354.134 308.199 354.134 308.199Z" fill="black"/>
<path d="M266.106 222.546L372.244 222.541V227.253H267.047L266.106 222.546Z" fill="black"/>
<path d="M261.634 190.198L266.106 200.894L363.074 202.045L365.273 193.216L261.634 190.198Z" fill="#BF9A00"/>
<path d="M287.992 188.349L278.837 188.144C278.505 188.137 278.178 188.064 277.875 187.931C277.571 187.797 277.297 187.605 277.067 187.365C276.838 187.125 276.658 186.842 276.538 186.533C276.418 186.224 276.36 185.894 276.367 185.562L276.442 182.224C276.457 181.554 276.737 180.917 277.221 180.454C277.706 179.991 278.354 179.739 279.024 179.754L288.18 179.958C288.85 179.973 289.486 180.254 289.949 180.738C290.412 181.222 290.664 181.871 290.649 182.541L290.575 185.879C290.56 186.549 290.279 187.186 289.795 187.649C289.311 188.112 288.662 188.364 287.992 188.349Z" fill="white"/>
<path d="M304.196 188.71L295.04 188.506C294.37 188.491 293.734 188.211 293.27 187.726C292.807 187.242 292.556 186.594 292.57 185.924L292.645 182.585C292.66 181.916 292.94 181.279 293.425 180.816C293.909 180.353 294.557 180.101 295.227 180.116L304.383 180.32C304.715 180.327 305.042 180.4 305.345 180.534C305.649 180.668 305.923 180.86 306.152 181.1C306.382 181.34 306.562 181.622 306.682 181.932C306.802 182.241 306.86 182.571 306.852 182.902L306.778 186.241C306.763 186.911 306.483 187.547 305.998 188.01C305.514 188.473 304.866 188.725 304.196 188.71Z" fill="white"/>
<path d="M320.399 189.072L311.244 188.868C310.574 188.853 309.937 188.572 309.474 188.088C309.011 187.604 308.759 186.955 308.774 186.285L308.848 182.947C308.856 182.615 308.928 182.288 309.062 181.985C309.196 181.681 309.388 181.407 309.628 181.177C309.868 180.948 310.151 180.768 310.46 180.648C310.769 180.528 311.099 180.47 311.431 180.477L320.586 180.682C321.256 180.697 321.893 180.977 322.356 181.461C322.819 181.946 323.071 182.594 323.056 183.264L322.981 186.602C322.974 186.934 322.901 187.261 322.767 187.565C322.634 187.868 322.441 188.143 322.202 188.372C321.962 188.601 321.679 188.781 321.37 188.901C321.061 189.021 320.731 189.079 320.399 189.072Z" fill="white"/>
<path d="M336.602 189.433L327.447 189.229C327.115 189.222 326.788 189.149 326.484 189.015C326.181 188.882 325.907 188.689 325.677 188.449C325.448 188.21 325.268 187.927 325.148 187.618C325.028 187.308 324.97 186.978 324.977 186.647L325.052 183.309C325.059 182.977 325.132 182.65 325.266 182.346C325.399 182.043 325.592 181.768 325.831 181.539C326.071 181.31 326.354 181.13 326.663 181.01C326.972 180.89 327.302 180.832 327.634 180.839L336.789 181.043C337.459 181.058 338.096 181.339 338.559 181.823C339.022 182.307 339.274 182.956 339.259 183.626L339.185 186.964C339.17 187.634 338.889 188.27 338.405 188.733C337.921 189.197 337.272 189.448 336.602 189.433Z" fill="white"/>
<path d="M352.805 189.795L343.65 189.591C343.318 189.583 342.991 189.511 342.688 189.377C342.384 189.243 342.11 189.051 341.88 188.811C341.651 188.571 341.471 188.289 341.351 187.979C341.231 187.67 341.173 187.34 341.18 187.008L341.255 183.67C341.27 183 341.55 182.364 342.034 181.9C342.519 181.437 343.167 181.185 343.837 181.2L352.993 181.405C353.663 181.42 354.299 181.7 354.762 182.184C355.225 182.669 355.477 183.317 355.462 183.987L355.388 187.325C355.373 187.995 355.092 188.632 354.608 189.095C354.124 189.558 353.475 189.81 352.805 189.795Z" fill="white"/>
<path d="M282.579 354.262C282.579 354.262 286.992 386.105 291.022 388.695C298.347 393.402 358.829 391.284 367.537 385.636C373.634 381.68 374.363 350.805 374.363 350.805L282.579 354.262Z" fill="#DDB300"/>
<path d="M294.915 368.095L367.297 366.148L363.767 370.789L298.582 373.163L294.915 368.095Z" fill="#171925"/>
<path d="M296.342 378.45L366.993 375.398L363.463 380.038L300.01 383.518L296.342 378.45Z" fill="#171925"/>
<path d="M270.483 388.46C270.483 391.189 268.502 393.402 266.059 393.402C263.615 393.402 261.634 391.189 261.634 388.46C261.634 385.731 263.615 383.518 266.059 383.518C268.502 383.518 270.483 385.731 270.483 388.46Z" fill="white"/>
<path d="M283.756 388.46C283.756 391.189 281.775 393.402 279.332 393.402C276.888 393.402 274.907 391.189 274.907 388.46C274.907 385.731 276.888 383.518 279.332 383.518C281.775 383.518 283.756 385.731 283.756 388.46Z" fill="white"/>
<path d="M380.293 381.446C380.293 384.175 378.966 386.388 377.328 386.388C375.69 386.388 374.363 384.175 374.363 381.446C374.363 378.716 375.69 376.504 377.328 376.504C378.966 376.504 380.293 378.716 380.293 381.446Z" fill="white"/>
<path d="M389.189 380.384C389.189 383.114 387.861 385.326 386.224 385.326C384.586 385.326 383.259 383.114 383.259 380.384C383.259 377.655 384.586 375.442 386.224 375.442C387.861 375.442 389.189 377.655 389.189 380.384Z" fill="white"/>
<path d="M218.144 416.386C225.909 416.386 232.203 402.394 232.203 385.135C232.203 367.876 225.909 353.884 218.144 353.884C210.38 353.884 204.086 367.876 204.086 385.135C204.086 402.394 210.38 416.386 218.144 416.386Z" fill="#171925"/>
<path d="M225.065 385.135C225.065 393.631 221.967 400.518 218.145 400.518C214.323 400.518 211.224 393.631 211.224 385.135C211.224 376.639 214.323 369.752 218.145 369.752C221.967 369.752 225.065 376.639 225.065 385.135Z" fill="#08A742"/>
<path d="M169.619 393.911C175.3 393.911 179.906 383.673 179.906 371.045C179.906 358.417 175.3 348.18 169.619 348.18C163.938 348.18 159.333 358.417 159.333 371.045C159.333 383.673 163.938 393.911 169.619 393.911Z" fill="#171925"/>
<path d="M174.682 371.045C174.682 377.261 172.415 382.3 169.619 382.3C166.822 382.3 164.555 377.261 164.555 371.045C164.555 364.829 166.822 359.79 169.619 359.79C172.415 359.79 174.682 364.829 174.682 371.045Z" fill="#08A742"/>
<path d="M114.335 367.31L122.463 367.278C122.463 367.278 127.647 363.542 125.741 351.287L115.132 349.306L114.335 367.31Z" fill="black"/>
<path d="M114.335 339.055H121.716C121.716 339.055 126.478 341.646 125.422 349.682C124.366 357.718 115.739 356.736 115.739 356.736L114.335 339.055Z" fill="black"/>
<path d="M119.184 353.182C119.184 360.985 117.013 367.31 114.334 367.31C111.656 367.31 109.485 360.985 109.485 353.182C109.485 345.38 111.656 339.055 114.334 339.055C117.013 339.055 119.184 345.38 119.184 353.182Z" fill="#171925"/>
<path d="M116.722 353.182C116.722 357.023 115.653 360.137 114.334 360.137C113.016 360.137 111.947 357.023 111.947 353.182C111.947 349.342 113.016 346.228 114.334 346.228C115.653 346.228 116.722 349.342 116.722 353.182Z" fill="#08A742"/>
<path d="M123.7 369.752C126.379 369.752 128.55 363.427 128.55 355.624C128.55 347.822 126.379 341.497 123.7 341.497C121.022 341.497 118.851 347.822 118.851 355.624C118.851 363.427 121.022 369.752 123.7 369.752Z" fill="#171925"/>
<path d="M126.088 355.624C126.088 359.465 125.019 362.579 123.7 362.579C122.382 362.579 121.313 359.465 121.313 355.624C121.313 351.784 122.382 348.67 123.7 348.67C125.019 348.67 126.088 351.784 126.088 355.624Z" fill="#08A742"/>
<path d="M264.9 352.019L261.634 356.81L267.909 357.59L277.492 353.884V351.461L264.9 352.019Z" fill="#FFCF17"/>
<path d="M380.293 346.104V348.687L388.011 350.805V346.104H380.293Z" fill="#FFCF17"/>
<path d="M255.986 371.045V381.446L282.579 380.942V369.752L255.986 371.045Z" fill="white"/>
<path d="M375.303 373.163L376.412 363.043L389.073 362.102V372.101L375.303 373.163Z" fill="white"/>
<path d="M318.115 398.664V409.169L349.18 407.051V397.167L318.115 398.664Z" fill="#EAE9F7"/>
<path d="M271.753 398.664V400.518L299.288 399.591V397.167L271.753 398.664Z" fill="#DDB300"/>
<path d="M368.478 391.285V393.402L386.224 392.343V390.107L368.478 391.285Z" fill="#DDB300"/>
<path d="M234.703 248.63H230.839V262.801H234.703V248.63Z" fill="#262F72"/>
<path d="M210.13 286.068L208.93 335.185L243.137 338.959L245.5 294.603L210.13 286.068Z" fill="#BF9A00"/>
<path d="M221.521 297.98C221.347 299.097 220.024 299.818 218.568 299.591C217.112 299.363 216.072 298.273 216.247 297.156C216.421 296.039 217.579 296.367 219.036 296.594C220.492 296.821 221.695 296.862 221.521 297.98Z" fill="#171925"/>
<path d="M157.488 346.679V362.508L132.714 356.652V343.856L157.488 346.679Z" fill="white"/>
<path d="M154.189 350.405V357.165L136.013 353.353V347.889L154.189 350.405Z" fill="#FFCC00"/>
<path d="M330.512 240.196L301.404 288.614L286.616 289.06L313.134 240.196H330.512Z" fill="#EAE9F7"/>
<path d="M360.989 240.196L332.868 287.669L321.244 288.019L348.123 240.196H360.989Z" fill="#EAE9F7"/>
<path d="M248.691 235.93V238.458C248.691 238.919 248.874 239.362 249.199 239.689C249.525 240.017 249.967 240.201 250.429 240.203L379.215 240.723C379.479 240.724 379.74 240.665 379.979 240.551C380.217 240.436 380.426 240.269 380.59 240.061C380.754 239.854 380.869 239.612 380.926 239.354C380.983 239.095 380.981 238.828 380.919 238.57L380.005 234.758C379.913 234.375 379.694 234.034 379.384 233.791C379.074 233.548 378.691 233.417 378.297 233.419L250.426 234.185C249.965 234.187 249.523 234.373 249.198 234.7C248.873 235.027 248.691 235.469 248.691 235.93Z" fill="black"/>
<path d="M179.905 214.066V227.567L162.654 238.287V228.147L179.905 214.066Z" fill="white"/>
<path d="M110.164 321.043V326.661L125.575 327.967V320.913L110.164 321.043Z" fill="white"/>
<path d="M238.868 257.277V286.735C238.868 286.735 223.168 287.223 221.82 285.503C221.162 284.675 220.726 279.505 220.652 274.155C220.567 268.423 220.907 262.468 221.82 261.332C223.592 259.124 238.868 257.277 238.868 257.277Z" fill="black"/>
<path d="M223.767 245.916L222.807 255.254L238.872 252.861V241.633C238.872 241.633 226.344 239.842 223.767 245.916Z" fill="black"/>
<g style="mix-blend-mode:multiply" opacity="0.2">
<path d="M238.868 275.09V286.735C238.868 286.735 223.168 287.223 221.82 285.503C221.162 284.675 220.726 279.505 220.652 274.155C221.002 274.657 221.424 275.104 221.905 275.482C223.401 276.682 225.344 277.138 227.255 277.329C231.225 277.733 235.386 277 238.868 275.09Z" fill="#263380"/>
</g>
<path d="M244.509 270.5H239.281C238.994 270.5 238.711 270.444 238.446 270.334C238.181 270.224 237.94 270.064 237.738 269.861C237.535 269.658 237.374 269.418 237.265 269.153C237.155 268.888 237.099 268.604 237.099 268.318C237.099 268.031 237.155 267.747 237.265 267.483C237.374 267.218 237.535 266.977 237.738 266.775C237.94 266.572 238.181 266.411 238.446 266.302C238.711 266.192 238.994 266.135 239.281 266.135H244.509C244.795 266.135 245.079 266.192 245.344 266.302C245.609 266.411 245.849 266.572 246.052 266.775C246.254 266.977 246.415 267.218 246.525 267.483C246.635 267.747 246.691 268.031 246.691 268.318C246.691 268.604 246.635 268.888 246.525 269.153C246.415 269.418 246.254 269.658 246.052 269.861C245.849 270.064 245.609 270.224 245.344 270.334C245.079 270.444 244.795 270.5 244.509 270.5Z" fill="black"/>
<path d="M208.016 280.477V222.546L206.604 223.075V280.477H208.016Z" fill="#BF9A00"/>
<path d="M211.224 239.255L228.548 195.882L210.907 201.805L211.224 239.255Z" fill="#BF9A00"/>
<path d="M232.653 194.662L228.549 206.307L248.691 200.189L252.554 187.245L232.653 194.662Z" fill="#BF9A00"/>
<path d="M185.575 356.884V359.254L202.836 362.268V359.267L185.575 356.884Z" fill="black"/>
<path d="M185.575 361.695V364.065L202.836 367.534V364.533L185.575 361.695Z" fill="black"/>
<path d="M185.575 366.506V368.876L202.836 372.8V369.799L185.575 366.506Z" fill="black"/>
<path d="M185.575 371.317V373.688L202.836 378.066V375.065L185.575 371.317Z" fill="black"/>
<path d="M185.575 376.128V378.499L202.836 383.332V380.331L185.575 376.128Z" fill="black"/>
<path d="M185.575 380.939V383.31L202.836 388.598V385.597L185.575 380.939Z" fill="black"/>
</svg>
