<svg width="60" height="60" viewBox="0 0 60 60" fill="none" xmlns="http://www.w3.org/2000/svg">
<rect x="1" y="1" width="58" height="58" rx="11" fill="#FDD700"/>
<rect x="1" y="1" width="58" height="58" rx="11" stroke="white" stroke-width="2"/>
<path d="M20 30C20 31.1333 20.2833 32.171 20.85 33.113C21.4167 34.055 22.175 34.7757 23.125 35.275C23.3583 35.4083 23.5293 35.6 23.638 35.85C23.7467 36.1 23.7507 36.35 23.65 36.6C23.55 36.8667 23.375 37.0583 23.125 37.175C22.875 37.2917 22.6333 37.2833 22.4 37.15C21.1 36.4833 20.0417 35.521 19.225 34.263C18.4083 33.005 18 31.584 18 30C18 28.4333 18.396 27.025 19.188 25.775C19.98 24.525 21.0173 23.5667 22.3 22.9C22.5333 22.7667 22.7793 22.754 23.038 22.862C23.2967 22.97 23.484 23.1577 23.6 23.425C23.7167 23.6583 23.725 23.9 23.625 24.15C23.525 24.4 23.3583 24.5917 23.125 24.725C22.175 25.225 21.4167 25.946 20.85 26.888C20.2833 27.83 20 28.8673 20 30ZM32 38C29.7833 38 27.8957 37.221 26.337 35.663C24.7783 34.105 23.9993 32.2173 24 30C24 27.7833 24.779 25.8957 26.337 24.337C27.895 22.7783 29.7827 21.9993 32 22C32.9333 22 33.8167 22.15 34.65 22.45C35.4833 22.75 36.2417 23.1667 36.925 23.7C37.1417 23.8667 37.25 24.0833 37.25 24.35C37.25 24.6167 37.15 24.85 36.95 25.05C36.7667 25.2333 36.5373 25.3333 36.262 25.35C35.9867 25.3667 35.7327 25.2917 35.5 25.125C35 24.7583 34.454 24.4793 33.862 24.288C33.27 24.0967 32.6493 24.0007 32 24C30.3333 24 28.9167 24.5833 27.75 25.75C26.5833 26.9167 26 28.3333 26 30C26 31.6667 26.5833 33.0833 27.75 34.25C28.9167 35.4167 30.3333 36 32 36C32.65 36 33.271 35.904 33.863 35.712C34.455 35.52 35.0007 35.241 35.5 34.875C35.7333 34.7083 35.9877 34.6333 36.263 34.65C36.5383 34.6667 36.7673 34.7667 36.95 34.95C37.15 35.15 37.25 35.3833 37.25 35.65C37.25 35.9167 37.1417 36.1333 36.925 36.3C36.2417 36.8333 35.4833 37.25 34.65 37.55C33.8167 37.85 32.9333 38 32 38ZM38.2 31H32C31.7167 31 31.479 30.904 31.287 30.712C31.095 30.52 30.9993 30.2827 31 30C31 29.7167 31.096 29.479 31.288 29.287C31.48 29.095 31.7173 28.9993 32 29H38.2L37.3 28.1C37.1167 27.9167 37.025 27.6833 37.025 27.4C37.025 27.1167 37.1167 26.8833 37.3 26.7C37.4833 26.5167 37.7167 26.425 38 26.425C38.2833 26.425 38.5167 26.5167 38.7 26.7L41.3 29.3C41.5 29.5 41.6 29.7333 41.6 30C41.6 30.2667 41.5 30.5 41.3 30.7L38.7 33.3C38.5167 33.4833 38.2833 33.575 38 33.575C37.7167 33.575 37.4833 33.4833 37.3 33.3C37.1167 33.1167 37.025 32.8833 37.025 32.6C37.025 32.3167 37.1167 32.0833 37.3 31.9L38.2 31Z" fill="black"/>
</svg>
