<svg width="61" height="60" viewBox="0 0 61 60" fill="none" xmlns="http://www.w3.org/2000/svg">
<rect x="1.6665" y="1" width="58" height="58" rx="11" fill="#FDD700"/>
<rect x="1.6665" y="1" width="58" height="58" rx="11" stroke="white" stroke-width="2"/>
<path d="M30.6665 36C32.3332 36 33.7498 35.4167 34.9165 34.25C36.0832 33.0833 36.6665 31.6667 36.6665 30C36.6665 28.55 36.2038 27.275 35.2785 26.175C34.3532 25.075 33.1825 24.3833 31.7665 24.1C31.4665 24.0667 31.2082 24.15 30.9915 24.35C30.7748 24.55 30.6665 24.8 30.6665 25.1V30L27.2165 33.45C26.9998 33.6667 26.8998 33.925 26.9165 34.225C26.9332 34.525 27.0582 34.7667 27.2915 34.95C27.7748 35.3333 28.3082 35.6043 28.8915 35.763C29.4748 35.9217 30.0665 36.0007 30.6665 36ZM30.6665 40C29.2832 40 27.9832 39.7373 26.7665 39.212C25.5498 38.6867 24.4915 37.9743 23.5915 37.075C22.6915 36.175 21.9792 35.1167 21.4545 33.9C20.9298 32.6833 20.6672 31.3833 20.6665 30C20.6665 28.6167 20.9292 27.3167 21.4545 26.1C21.9798 24.8833 22.6922 23.825 23.5915 22.925C24.4915 22.025 25.5498 21.3127 26.7665 20.788C27.9832 20.2633 29.2832 20.0007 30.6665 20C32.0498 20 33.3498 20.2627 34.5665 20.788C35.7832 21.3133 36.8415 22.0257 37.7415 22.925C38.6415 23.825 39.3542 24.8833 39.8795 26.1C40.4048 27.3167 40.6672 28.6167 40.6665 30C40.6665 31.3833 40.4038 32.6833 39.8785 33.9C39.3532 35.1167 38.6408 36.175 37.7415 37.075C36.8415 37.975 35.7832 38.6877 34.5665 39.213C33.3498 39.7383 32.0498 40.0007 30.6665 40ZM30.6665 38C32.8998 38 34.7915 37.225 36.3415 35.675C37.8915 34.125 38.6665 32.2333 38.6665 30C38.6665 27.7667 37.8915 25.875 36.3415 24.325C34.7915 22.775 32.8998 22 30.6665 22C28.4332 22 26.5415 22.775 24.9915 24.325C23.4415 25.875 22.6665 27.7667 22.6665 30C22.6665 32.2333 23.4415 34.125 24.9915 35.675C26.5415 37.225 28.4332 38 30.6665 38Z" fill="black"/>
</svg>
