<svg width="61" height="60" viewBox="0 0 61 60" fill="none" xmlns="http://www.w3.org/2000/svg">
<rect x="1.3335" y="1" width="58" height="58" rx="11" fill="#FDD700"/>
<rect x="1.3335" y="1" width="58" height="58" rx="11" stroke="white" stroke-width="2"/>
<path d="M30.3335 35.5C30.9002 35.5 31.4335 35.3957 31.9335 35.187C32.4335 34.9783 32.9002 34.6827 33.3335 34.3C33.4835 34.1667 33.5585 33.9917 33.5585 33.775C33.5585 33.5583 33.4835 33.3833 33.3335 33.25C33.1835 33.1167 33.0045 33.05 32.7965 33.05C32.5885 33.05 32.4008 33.1167 32.2335 33.25C31.9502 33.4667 31.6502 33.6417 31.3335 33.775C31.0168 33.9083 30.6835 33.975 30.3335 33.975C29.9835 33.975 29.6502 33.9083 29.3335 33.775C29.0168 33.6417 28.7168 33.4667 28.4335 33.25C28.2668 33.1167 28.0792 33.05 27.8705 33.05C27.6618 33.05 27.4828 33.1167 27.3335 33.25C27.1835 33.3833 27.1085 33.5583 27.1085 33.775C27.1085 33.9917 27.1835 34.1667 27.3335 34.3C27.7668 34.6667 28.2335 34.9583 28.7335 35.175C29.2335 35.3917 29.7668 35.5 30.3335 35.5ZM30.3335 40C28.9502 40 27.6502 39.7373 26.4335 39.212C25.2168 38.6867 24.1585 37.9743 23.2585 37.075C22.3585 36.175 21.6462 35.1167 21.1215 33.9C20.5968 32.6833 20.3342 31.3833 20.3335 30C20.3335 28.6167 20.5962 27.3167 21.1215 26.1C21.6468 24.8833 22.3592 23.825 23.2585 22.925C24.1585 22.025 25.2168 21.3127 26.4335 20.788C27.6502 20.2633 28.9502 20.0007 30.3335 20C31.7168 20 33.0168 20.2627 34.2335 20.788C35.4502 21.3133 36.5085 22.0257 37.4085 22.925C38.3085 23.825 39.0212 24.8833 39.5465 26.1C40.0718 27.3167 40.3342 28.6167 40.3335 30C40.3335 31.3833 40.0708 32.6833 39.5455 33.9C39.0202 35.1167 38.3078 36.175 37.4085 37.075C36.5085 37.975 35.4502 38.6877 34.2335 39.213C33.0168 39.7383 31.7168 40.0007 30.3335 40ZM30.3335 38C32.5668 38 34.4585 37.225 36.0085 35.675C37.5585 34.125 38.3335 32.2333 38.3335 30C38.3335 27.7667 37.5585 25.875 36.0085 24.325C34.4585 22.775 32.5668 22 30.3335 22C28.1002 22 26.2085 22.775 24.6585 24.325C23.1085 25.875 22.3335 27.7667 22.3335 30C22.3335 32.2333 23.1085 34.125 24.6585 35.675C26.2085 37.225 28.1002 38 30.3335 38ZM26.8335 30C27.3668 30 27.8462 29.8333 28.2715 29.5C28.6968 29.1667 29.0258 28.7583 29.2585 28.275C29.3418 28.0583 29.3462 27.8457 29.2715 27.637C29.1968 27.4283 29.0508 27.2993 28.8335 27.25C28.6502 27.2 28.4668 27.221 28.2835 27.313C28.1002 27.405 27.9668 27.5423 27.8835 27.725C27.7668 27.9417 27.6208 28.125 27.4455 28.275C27.2702 28.425 27.0662 28.5 26.8335 28.5C26.6002 28.5 26.3918 28.421 26.2085 28.263C26.0252 28.105 25.8835 27.9173 25.7835 27.7C25.7002 27.5167 25.5668 27.3833 25.3835 27.3C25.2002 27.2167 25.0168 27.2 24.8335 27.25C24.6168 27.3 24.4708 27.4293 24.3955 27.638C24.3202 27.8467 24.3328 28.059 24.4335 28.275C24.6335 28.775 24.9502 29.1877 25.3835 29.513C25.8168 29.8383 26.3002 30.0007 26.8335 30ZM33.8335 30C34.3668 30 34.8462 29.8333 35.2715 29.5C35.6968 29.1667 36.0258 28.7583 36.2585 28.275C36.3418 28.0583 36.3462 27.8457 36.2715 27.637C36.1968 27.4283 36.0508 27.2993 35.8335 27.25C35.6502 27.2 35.4668 27.221 35.2835 27.313C35.1002 27.405 34.9668 27.5423 34.8835 27.725C34.7668 27.9417 34.6208 28.125 34.4455 28.275C34.2702 28.425 34.0662 28.5 33.8335 28.5C33.6002 28.5 33.3918 28.421 33.2085 28.263C33.0252 28.105 32.8835 27.9173 32.7835 27.7C32.7002 27.5167 32.5668 27.3833 32.3835 27.3C32.2002 27.2167 32.0168 27.2 31.8335 27.25C31.6168 27.3 31.4708 27.4293 31.3955 27.638C31.3202 27.8467 31.3328 28.059 31.4335 28.275C31.6335 28.775 31.9502 29.1877 32.3835 29.513C32.8168 29.8383 33.3002 30.0007 33.8335 30Z" fill="black"/>
</svg>
