<svg width="60" height="60" viewBox="0 0 60 60" fill="none" xmlns="http://www.w3.org/2000/svg">
<rect x="1" y="1" width="58" height="58" rx="11" fill="#FDD700"/>
<rect x="1" y="1" width="58" height="58" rx="11" stroke="white" stroke-width="2"/>
<path d="M27.35 34.8C25.2167 34.5167 23.4583 33.9333 22.075 33.05C20.6917 32.1667 20 31.15 20 30C20 28.6167 20.9627 27.4373 22.888 26.462C24.8133 25.4867 27.184 24.9993 30 25C32.8167 25 35.1877 25.4877 37.113 26.463C39.0383 27.4383 40.0007 28.6173 40 30C40 30.9333 39.5457 31.7793 38.637 32.538C37.7283 33.2967 36.5243 33.8923 35.025 34.325C34.7583 34.4083 34.521 34.3707 34.313 34.212C34.105 34.0533 34.0007 33.841 34 33.575C34 33.275 34.0877 33.0083 34.263 32.775C34.4383 32.5417 34.6673 32.375 34.95 32.275C35.95 31.9417 36.7083 31.5627 37.225 31.138C37.7417 30.7133 38 30.334 38 30C38 29.4667 37.2873 28.8333 35.862 28.1C34.4367 27.3667 32.4827 27 30 27C27.5167 27 25.5623 27.3667 24.137 28.1C22.7117 28.8333 21.9993 29.4667 22 30C22 30.4 22.425 30.8793 23.275 31.438C24.125 31.9967 25.3333 32.4173 26.9 32.7L26.3 32.1C26.1167 31.9167 26.025 31.6833 26.025 31.4C26.025 31.1167 26.1167 30.8833 26.3 30.7C26.4833 30.5167 26.7167 30.425 27 30.425C27.2833 30.425 27.5167 30.5167 27.7 30.7L30.3 33.3C30.5 33.5 30.6 33.7333 30.6 34C30.6 34.2667 30.5 34.5 30.3 34.7L27.7 37.3C27.5167 37.4833 27.2877 37.5793 27.013 37.588C26.7383 37.5967 26.5007 37.5007 26.3 37.3C26.1167 37.1167 26.0207 36.8873 26.012 36.612C26.0033 36.3367 26.091 36.0993 26.275 35.9L27.35 34.8Z" fill="black"/>
</svg>
