<svg width="61" height="60" viewBox="0 0 61 60" fill="none" xmlns="http://www.w3.org/2000/svg">
<rect x="1.6665" y="1" width="58" height="58" rx="11" fill="#FDD700"/>
<rect x="1.6665" y="1" width="58" height="58" rx="11" stroke="white" stroke-width="2"/>
<path d="M32.9165 39.4C32.5332 39.7833 32.0582 39.975 31.4915 39.975C30.9248 39.975 30.4498 39.7833 30.0665 39.4L21.2665 30.6C21.0832 30.4167 20.9372 30.2 20.8285 29.95C20.7198 29.7 20.6658 29.4333 20.6665 29.15V22C20.6665 21.45 20.8625 20.979 21.2545 20.587C21.6465 20.195 22.1172 19.9993 22.6665 20H29.8165C30.0998 20 30.3665 20.0543 30.6165 20.163C30.8665 20.2717 31.0832 20.4173 31.2665 20.6L40.0665 29.425C40.4498 29.8083 40.6415 30.2793 40.6415 30.838C40.6415 31.3967 40.4498 31.8673 40.0665 32.25L32.9165 39.4ZM31.4915 38L38.6415 30.85L29.8165 22H22.6665V29.15L31.4915 38ZM25.1665 26C25.5832 26 25.9375 25.854 26.2295 25.562C26.5215 25.27 26.6672 24.916 26.6665 24.5C26.6665 24.0833 26.5205 23.729 26.2285 23.437C25.9365 23.145 25.5825 22.9993 25.1665 23C24.7498 23 24.3955 23.146 24.1035 23.438C23.8115 23.73 23.6658 24.084 23.6665 24.5C23.6665 24.9167 23.8125 25.271 24.1045 25.563C24.3965 25.855 24.7505 26.0007 25.1665 26Z" fill="black"/>
</svg>
