<svg width="61" height="60" viewBox="0 0 61 60" fill="none" xmlns="http://www.w3.org/2000/svg">
<rect x="1.3335" y="1" width="58" height="58" rx="11" fill="#FDD700"/>
<rect x="1.3335" y="1" width="58" height="58" rx="11" stroke="white" stroke-width="2"/>
<path d="M21.3335 37C20.7835 37 20.3125 36.804 19.9205 36.412C19.5285 36.02 19.3328 35.5493 19.3335 35V25C19.3335 24.45 19.5295 23.979 19.9215 23.587C20.3135 23.195 20.7842 22.9993 21.3335 23H31.3335C31.8835 23 32.3545 23.196 32.7465 23.588C33.1385 23.98 33.3342 24.4507 33.3335 25V35C33.3335 35.55 33.1375 36.021 32.7455 36.413C32.3535 36.805 31.8828 37.0007 31.3335 37H21.3335ZM21.3335 35H31.3335V25H21.3335V35ZM36.3335 37C36.0502 37 35.8125 36.904 35.6205 36.712C35.4285 36.52 35.3328 36.2827 35.3335 36V24C35.3335 23.7167 35.4295 23.479 35.6215 23.287C35.8135 23.095 36.0508 22.9993 36.3335 23C36.6168 23 36.8545 23.096 37.0465 23.288C37.2385 23.48 37.3342 23.7173 37.3335 24V36C37.3335 36.2833 37.2375 36.521 37.0455 36.713C36.8535 36.905 36.6162 37.0007 36.3335 37ZM40.3335 37C40.0502 37 39.8125 36.904 39.6205 36.712C39.4285 36.52 39.3328 36.2827 39.3335 36V24C39.3335 23.7167 39.4295 23.479 39.6215 23.287C39.8135 23.095 40.0508 22.9993 40.3335 23C40.6168 23 40.8545 23.096 41.0465 23.288C41.2385 23.48 41.3342 23.7173 41.3335 24V36C41.3335 36.2833 41.2375 36.521 41.0455 36.713C40.8535 36.905 40.6162 37.0007 40.3335 37Z" fill="black"/>
</svg>
