<svg width="148" height="29" viewBox="0 0 148 29" fill="none" xmlns="http://www.w3.org/2000/svg">
<path d="M145.195 28.2999H35.5289L38.1151 20.0799H147.781L145.195 28.2999Z" fill="#FDD700"/>
<path d="M43.9031 26.14V22.84L42.3637 25.06L40.8244 22.84V26.14H40.5165V22.3H40.7628L42.3637 24.58L43.9647 22.3H44.211V26.14H43.9031Z" fill="#010101"/>
<path d="M47.2282 26.2C46.3661 26.2 45.7504 25.54 45.7504 24.76C45.7504 23.98 46.3661 23.32 47.2282 23.32C48.0902 23.32 48.706 23.98 48.706 24.76C48.706 25.54 48.0902 26.2 47.2282 26.2ZM48.3981 24.76C48.3981 24.1 47.9055 23.56 47.2282 23.56C46.5508 23.56 46.0582 24.1 46.0582 24.76C46.0582 25.42 46.5508 25.96 47.2282 25.96C47.9055 25.96 48.3981 25.42 48.3981 24.76Z" fill="#010101"/>
<path d="M51.2922 26.14H51.0459L49.7528 23.32H50.0607L51.169 25.78L52.2774 23.32H52.5853L51.2922 26.14Z" fill="#010101"/>
<path d="M54.0015 22.6V22.24H54.3709V22.6H54.0015ZM54.0015 26.14V23.38H54.2478V26.14H54.0015Z" fill="#010101"/>
<path d="M58.2502 26.14V24.46C58.2502 23.86 57.9424 23.5 57.3266 23.5C56.7724 23.5 56.3414 23.92 56.3414 24.52V26.14H56.0951V23.38H56.3414V23.92C56.5261 23.62 56.834 23.32 57.3882 23.32C58.1271 23.32 58.5581 23.8 58.5581 24.46V26.14H58.2502Z" fill="#010101"/>
<path d="M61.4521 27.04C60.9595 27.04 60.5284 26.92 60.159 26.62L60.3437 26.38C60.7132 26.62 61.0826 26.8 61.5136 26.8C62.191 26.8 62.622 26.44 62.622 25.72V25.3C62.3757 25.66 62.0063 25.96 61.4521 25.96C60.7747 25.96 60.0974 25.42 60.0974 24.64C60.0974 23.86 60.7747 23.32 61.4521 23.32C62.0063 23.32 62.4373 23.62 62.622 23.92V23.38H62.8683V25.72C62.8067 26.56 62.2526 27.04 61.4521 27.04ZM62.5604 24.58C62.5604 23.92 61.9447 23.5 61.3905 23.5C60.7747 23.5 60.2821 23.92 60.2821 24.58C60.2821 25.18 60.7747 25.66 61.3905 25.66C62.0063 25.66 62.5604 25.24 62.5604 24.58Z" fill="#010101"/>
<path d="M67.2402 22.54V24.1H69.457V24.34H67.2402V26.08H66.9324V22.3H69.7033V22.54H67.2402Z" fill="#010101"/>
<path d="M72.4741 26.2C71.6121 26.2 70.9963 25.54 70.9963 24.76C70.9963 23.98 71.6121 23.32 72.4741 23.32C73.3362 23.32 73.952 23.98 73.952 24.76C73.952 25.54 73.2746 26.2 72.4741 26.2ZM73.6441 24.76C73.6441 24.1 73.1515 23.56 72.4741 23.56C71.7968 23.56 71.3042 24.1 71.3042 24.76C71.3042 25.42 71.7968 25.96 72.4741 25.96C73.1515 25.96 73.6441 25.42 73.6441 24.76Z" fill="#010101"/>
<path d="M76.9691 23.62C76.2918 23.62 75.7376 24.1 75.7376 25V26.14H75.4913V23.38H75.7376V24.16C75.9839 23.68 76.415 23.32 77.0307 23.32L76.9691 23.62Z" fill="#010101"/>
<path d="M81.3409 26.14H81.0946L80.2325 23.74L79.3705 26.14H79.1242L78.0774 23.32H78.3853L79.2473 25.78L80.1094 23.32H80.3557L81.2177 25.78L82.0798 23.32H82.3877L81.3409 26.14Z" fill="#010101"/>
<path d="M85.7128 26.14V25.66C85.5281 25.9 85.1586 26.2 84.6045 26.2C84.0503 26.2 83.4961 25.9 83.4961 25.3C83.4961 24.7 83.9887 24.4 84.7276 24.4C85.0971 24.4 85.4049 24.46 85.6512 24.52V24.4C85.6512 23.86 85.2818 23.56 84.7276 23.56C84.3581 23.56 84.1118 23.68 83.804 23.8L83.6808 23.56C83.9887 23.44 84.2966 23.32 84.666 23.32C85.4049 23.32 85.836 23.68 85.836 24.4V26.14H85.7128ZM85.7128 24.76C85.4665 24.7 85.1586 24.64 84.7276 24.64C84.1118 24.64 83.804 24.88 83.804 25.3C83.804 25.72 84.1734 25.96 84.6045 25.96C85.1586 25.96 85.7128 25.6 85.7128 25.12V24.76Z" fill="#010101"/>
<path d="M89.161 23.62C88.4837 23.62 87.9295 24.1 87.9295 25V26.14H87.6832V23.38H87.9295V24.16C88.1758 23.68 88.6069 23.32 89.2226 23.32L89.161 23.62Z" fill="#010101"/>
<path d="M92.7939 26.14V25.54C92.5476 25.9 92.1782 26.2 91.624 26.2C90.9467 26.2 90.2078 25.66 90.2078 24.76C90.2078 23.86 90.8851 23.32 91.624 23.32C92.1782 23.32 92.5476 23.62 92.7939 23.98V22.18H93.0402V26.14H92.7939ZM92.8555 24.76C92.8555 24.04 92.3013 23.56 91.6856 23.56C91.0698 23.56 90.5772 23.98 90.5772 24.76C90.5772 25.48 91.0698 25.96 91.6856 25.96C92.2397 25.96 92.8555 25.48 92.8555 24.76Z" fill="#010101"/>
<path d="M100.614 26.14V22.84L99.0747 25.06L97.5353 22.84V26.14H97.2274V22.3H97.4737L99.0747 24.58L100.676 22.3H100.922V26.14H100.614Z" fill="#010101"/>
<path d="M104.001 26.2C103.139 26.2 102.523 25.54 102.523 24.76C102.523 23.98 103.139 23.32 104.001 23.32C104.863 23.32 105.478 23.98 105.478 24.76C105.478 25.54 104.863 26.2 104.001 26.2ZM105.171 24.76C105.171 24.1 104.678 23.56 104.001 23.56C103.323 23.56 102.831 24.1 102.831 24.76C102.831 25.42 103.323 25.96 104.001 25.96C104.678 25.96 105.171 25.42 105.171 24.76Z" fill="#010101"/>
<path d="M108.065 26.14H107.818L106.525 23.32H106.833L107.941 25.78L109.05 23.32H109.358L108.065 26.14Z" fill="#010101"/>
<path d="M110.774 22.6V22.24H111.143V22.6H110.774ZM110.774 26.14V23.38H111.02V26.14H110.774Z" fill="#010101"/>
<path d="M115.023 26.14V24.46C115.023 23.86 114.715 23.5 114.099 23.5C113.545 23.5 113.114 23.92 113.114 24.52V26.14H112.868V23.38H113.114V23.92C113.299 23.62 113.606 23.32 114.161 23.32C114.9 23.32 115.331 23.8 115.331 24.46V26.14H115.023Z" fill="#010101"/>
<path d="M118.163 27.04C117.67 27.04 117.239 26.92 116.87 26.62L117.055 26.38C117.424 26.62 117.794 26.8 118.225 26.8C118.902 26.8 119.333 26.44 119.333 25.72V25.3C119.087 25.66 118.717 25.96 118.163 25.96C117.486 25.96 116.808 25.42 116.808 24.64C116.808 23.86 117.486 23.32 118.163 23.32C118.717 23.32 119.148 23.62 119.333 23.92V23.38H119.579V25.72C119.579 26.56 119.025 27.04 118.163 27.04ZM119.333 24.58C119.333 23.92 118.717 23.5 118.163 23.5C117.547 23.5 117.055 23.92 117.055 24.58C117.055 25.18 117.547 25.66 118.163 25.66C118.717 25.66 119.333 25.24 119.333 24.58Z" fill="#010101"/>
<path d="M125.429 26.14H123.705V22.3H125.306C126.045 22.3 126.599 22.66 126.599 23.26C126.599 23.8 126.229 24.04 125.922 24.16C126.414 24.28 126.784 24.52 126.784 25.06C126.845 25.72 126.291 26.14 125.429 26.14ZM126.353 23.26C126.353 22.84 125.983 22.54 125.367 22.54H124.013V24.1H125.306C125.922 24.1 126.353 23.8 126.353 23.26ZM126.537 25.06C126.537 24.58 126.106 24.34 125.367 24.34H124.013V25.9H125.429C126.106 25.9 126.537 25.54 126.537 25.06Z" fill="#010101"/>
<path d="M129.616 25.96C130.047 25.96 130.355 25.78 130.601 25.54L130.786 25.72C130.478 26.02 130.17 26.26 129.616 26.26C128.877 26.26 128.2 25.66 128.2 24.82C128.2 24.04 128.754 23.38 129.554 23.38C130.355 23.38 130.848 24.04 130.848 24.82C130.848 24.88 130.848 24.88 130.848 24.94H128.446C128.569 25.54 129.062 25.96 129.616 25.96ZM130.601 24.58C130.54 24.04 130.232 23.5 129.554 23.5C129 23.5 128.569 23.98 128.508 24.58H130.601Z" fill="#010101"/>
<path d="M133.311 26.2C132.88 26.2 132.51 25.96 132.51 25.42V23.62H132.079V23.38H132.51V22.48H132.756V23.38H133.742V23.62H132.756V25.42C132.756 25.84 133.003 25.96 133.311 25.96C133.434 25.96 133.557 25.96 133.742 25.84V26.08C133.618 26.14 133.495 26.2 133.311 26.2Z" fill="#010101"/>
<path d="M136.205 26.2C135.774 26.2 135.404 25.96 135.404 25.42V23.62H134.973V23.38H135.404V22.48H135.65V23.38H136.636V23.62H135.65V25.42C135.65 25.84 135.897 25.96 136.205 25.96C136.328 25.96 136.451 25.96 136.636 25.84V26.08C136.513 26.14 136.389 26.2 136.205 26.2Z" fill="#010101"/>
<path d="M139.345 25.96C139.776 25.96 140.084 25.78 140.33 25.54L140.515 25.72C140.207 26.02 139.899 26.26 139.345 26.26C138.606 26.26 137.929 25.66 137.929 24.82C137.929 24.04 138.483 23.38 139.283 23.38C140.084 23.38 140.576 24.04 140.576 24.82C140.576 24.88 140.576 24.88 140.576 24.94H138.175C138.237 25.54 138.729 25.96 139.345 25.96ZM140.269 24.58C140.207 24.04 139.899 23.5 139.222 23.5C138.668 23.5 138.237 23.98 138.175 24.58H140.269Z" fill="#010101"/>
<path d="M143.594 23.62C142.916 23.62 142.362 24.1 142.362 25V26.14H142.116V23.38H142.362V24.16C142.608 23.68 143.039 23.32 143.655 23.32L143.594 23.62Z" fill="#010101"/>
<path d="M59.5434 1.06V11.86H66.563V15.28H55.4178V1.06H59.5434Z" fill="#010101"/>
<path d="M94.2718 15.4H90.2694L84.1735 1.12003H88.73L90.3926 5.38003L92.2398 10.66L94.0871 5.38003L95.7496 1.12003H100.306L94.2718 15.4Z" fill="#010101"/>
<path d="M123.397 1.06V11.86H130.417V15.28H119.271V1.06H123.397Z" fill="#010101"/>
<path d="M137.99 15.22H146.734L141.87 1.24001C141.747 0.94001 141.5 0.76001 141.131 0.76001H137.929C137.559 0.76001 137.375 0.94001 137.252 1.24001L132.695 15.22H136.944L139.53 6.04001H139.591L141.192 11.44H138.852L137.99 15.22Z" fill="#010101"/>
<path d="M52.0312 8.20001C52.0312 12.34 48.5829 15.64 44.3958 15.64C40.1471 15.64 36.7605 12.28 36.7605 8.20001C36.7605 6.82001 37.1299 5.50001 37.8688 4.36001L36.5142 3.10001L38.7924 3.16001L41.6865 3.22001V4.66001L41.6249 8.02001L40.2087 6.64001C40.024 7.12001 39.9008 7.66001 39.9008 8.20001C39.9008 10.66 41.9328 12.64 44.4574 12.64C46.982 12.64 49.014 10.66 49.014 8.20001C49.014 5.74001 46.982 3.76001 44.4574 3.76001C43.9032 3.76001 43.4106 3.88001 42.918 4.00001L42.8564 2.08001L40.2087 2.02001C41.4402 1.24001 42.8564 0.76001 44.4574 0.76001C48.6445 0.76001 52.0312 4.06001 52.0312 8.20001Z" fill="#010101"/>
<path d="M109.543 0.760012C109.296 0.760012 109.05 0.700012 108.742 0.700012C108.496 0.700012 108.188 0.700012 107.942 0.760012C104.062 1.12001 101.045 4.30001 101.045 8.20001C101.045 12.1 104.062 15.28 107.942 15.64C108.188 15.64 108.434 15.7 108.742 15.7C108.988 15.7 109.296 15.7 109.543 15.64C113.422 15.28 116.439 12.1 116.439 8.20001C116.439 4.30001 113.422 1.12001 109.543 0.760012ZM108.742 12.22C106.402 12.22 104.74 10.6 104.74 8.20001C104.74 5.86001 106.341 4.18001 108.742 4.18001C111.144 4.18001 112.744 5.74001 112.744 8.20001C112.744 10.54 111.205 12.22 108.742 12.22Z" fill="#010101"/>
<path d="M76.7845 0.760012C76.5382 0.760012 76.2919 0.700012 75.984 0.700012C75.7377 0.700012 75.4299 0.700012 75.1835 0.760012C71.3043 1.12001 68.2871 4.36001 68.2871 8.20001C68.2871 12.04 71.3043 15.28 75.1835 15.64C75.4299 15.64 75.6762 15.7 75.984 15.7C76.2303 15.7 76.5382 15.7 76.7845 15.64C80.6638 15.28 83.681 12.1 83.681 8.20001C83.681 4.30001 80.6638 1.12001 76.7845 0.760012ZM75.984 12.22C73.6442 12.22 71.9816 10.6 71.9816 8.20001C71.9816 5.86001 73.5826 4.18001 75.984 4.18001C78.3855 4.18001 79.9864 5.74001 79.9864 8.20001C79.9864 10.54 78.3855 12.22 75.984 12.22Z" fill="#010101"/>
<path d="M21.2435 28.3H7.08117C3.14034 28.3 0 25.18 0 21.4V7.60001C0 3.76001 3.14034 0.700012 7.08117 0.700012H21.2435C25.1843 0.700012 28.3247 3.76001 28.3247 7.60001V21.4C28.3247 25.24 25.1843 28.3 21.2435 28.3Z" fill="#FDD700"/>
<path d="M23.0292 14.4998C23.0292 19.1798 19.1499 23.0198 14.2855 23.0198C9.48259 23.0198 5.54176 19.2398 5.54176 14.4998C5.54176 12.8798 5.97279 11.3798 6.77327 10.1198L5.23389 8.6198L7.82005 8.6798L11.0835 8.7398L11.022 10.4198L10.9604 14.2598L9.42101 12.6998C9.17471 13.2398 9.05156 13.8398 9.05156 14.4998C9.05156 17.3198 11.3914 19.5398 14.2239 19.5398C17.1179 19.5398 19.3962 17.2598 19.3962 14.4998C19.3962 11.6798 17.0564 9.4598 14.2239 9.4598C13.6081 9.4598 13.054 9.5798 12.4998 9.7598L12.4382 7.5398L9.42101 7.4198C10.7757 6.5198 12.4382 5.9798 14.2239 5.9798C19.1499 5.9798 23.0292 9.8198 23.0292 14.4998Z" fill="black"/>
</svg>
