<svg width="35" height="36" viewBox="0 0 35 36" fill="none" xmlns="http://www.w3.org/2000/svg">
<path d="M26.25 36H8.75C3.88043 36 0 31.9304 0 27V9C0 3.9913 3.88043 0 8.75 0H26.25C31.1196 0 35 3.9913 35 9V27C35 32.0087 31.1196 36 26.25 36Z" fill="#FDD700"/>
<path d="M28.4565 17.9997C28.4565 24.1041 23.6631 29.1128 17.6522 29.1128C11.7174 29.1128 6.84784 24.1823 6.84784 17.9997C6.84784 15.8867 7.38045 13.9302 8.36958 12.2867L6.46741 10.3302L9.66306 10.4084L13.6957 10.4867L13.6196 12.678L13.5435 17.6867L11.6413 15.6519C11.337 16.3563 11.1848 17.1389 11.1848 17.9997C11.1848 21.678 14.0761 24.5736 17.5761 24.5736C21.1522 24.5736 23.9674 21.5997 23.9674 17.9997C23.9674 14.3215 21.0761 11.4258 17.5761 11.4258C16.8152 11.4258 16.1304 11.5823 15.4457 11.8171L15.3696 8.92147L11.6413 8.76495C13.3152 7.59104 15.3696 6.88669 17.5761 6.88669C23.6631 6.88669 28.4565 11.8954 28.4565 17.9997Z" fill="black"/>
</svg>
