<svg width="16" height="16" viewBox="0 0 16 16" fill="none" xmlns="http://www.w3.org/2000/svg">
<path d="M12 16H4C1.77391 16 0 14.1913 0 12V4C0 1.77391 1.77391 0 4 0H12C14.2261 0 16 1.77391 16 4V12C16 14.2261 14.2261 16 12 16Z" fill="#FDD700"/>
<path d="M13.0087 7.99989C13.0087 10.7129 10.8174 12.939 8.06959 12.939C5.35654 12.939 3.13046 10.7477 3.13046 7.99989C3.13046 7.06076 3.37393 6.1912 3.82611 5.46076L2.95654 4.5912L4.41741 4.62598L6.26089 4.66076L6.22611 5.63467L6.19132 7.86076L5.32176 6.95641C5.18263 7.26946 5.11306 7.61728 5.11306 7.99989C5.11306 9.63467 6.4348 10.9216 8.0348 10.9216C9.66959 10.9216 10.9565 9.59989 10.9565 7.99989C10.9565 6.36511 9.6348 5.07815 8.0348 5.07815C7.68698 5.07815 7.37393 5.14772 7.06089 5.25206L7.02611 3.96511L5.32176 3.89554C6.08698 3.3738 7.02611 3.06076 8.0348 3.06076C10.8174 3.06076 13.0087 5.28685 13.0087 7.99989Z" fill="black"/>
</svg>
